<svg width="16" height="16" viewBox="0 0 16 16" fill="none" xmlns="http://www.w3.org/2000/svg">
<g id="eva:diagonal-arrow-right-up-outline">
<path id="Vector" d="M12 5.7C12 5.52319 11.9297 5.35362 11.8047 5.2286C11.6797 5.10357 11.5101 5.03333 11.3333 5.03333L5.99996 5C5.82315 5 5.65358 5.07024 5.52855 5.19526C5.40353 5.32029 5.33329 5.48986 5.33329 5.66667C5.33329 5.84348 5.40353 6.01305 5.52855 6.13807C5.65358 6.2631 5.82315 6.33333 5.99996 6.33333H9.70663L4.19329 11.86C4.13081 11.922 4.08121 11.9957 4.04737 12.0769C4.01352 12.1582 3.99609 12.2453 3.99609 12.3333C3.99609 12.4213 4.01352 12.5085 4.04737 12.5897C4.08121 12.671 4.13081 12.7447 4.19329 12.8067C4.25527 12.8692 4.329 12.9187 4.41024 12.9526C4.49148 12.9864 4.57862 13.0039 4.66663 13.0039C4.75463 13.0039 4.84177 12.9864 4.92301 12.9526C5.00425 12.9187 5.07798 12.8692 5.13996 12.8067L10.6666 7.28V11C10.6666 11.1768 10.7369 11.3464 10.8619 11.4714C10.9869 11.5964 11.1565 11.6667 11.3333 11.6667C11.5101 11.6667 11.6797 11.5964 11.8047 11.4714C11.9297 11.3464 12 11.1768 12 11V5.7Z" fill="white"/>
</g>
</svg>
