<svg width="22" height="22" viewBox="0 0 22 22" fill="none" xmlns="http://www.w3.org/2000/svg">
<g clip-path="url(#clip0_230_245)">
<g clip-path="url(#clip1_230_245)">
<path d="M21.3461 5.63211L20.7212 3.36981C20.6472 3.10114 20.3707 2.94538 20.1021 3.01937L18.0948 3.57229C18.0111 3.86627 17.9644 4.17388 17.9644 4.49317C17.9644 5.39653 18.3226 6.21813 18.8989 6.82751L20.9918 6.24928C21.2605 6.17529 21.4162 5.89883 21.3422 5.63016L21.3461 5.63211Z" fill="white"/>
<path d="M17.464 4.49315C17.464 4.23032 17.4912 3.97333 17.5399 3.72607L15.7273 4.22643C14.6643 4.52236 14.1698 5.74696 14.7325 6.69705C14.7617 6.74572 17.6061 11.4981 15.0459 14.3912C14.4658 15.0473 13.905 14.9266 13.4222 14.7767C13.1944 14.7066 13.0231 14.6054 12.8479 14.4788C10.4921 12.8201 9.74257 11.0562 9.74257 11.0562C9.58292 10.7193 9.48947 10.4098 9.48363 10.1489C9.48168 10.0029 9.48168 9.69138 9.67637 9.53369C9.90416 9.35068 10.1553 9.43439 10.2546 9.50059C10.3558 9.57457 10.4142 9.66023 10.4337 9.7128C10.5311 9.95811 10.5096 10.3261 10.2819 10.877C10.9827 12.1893 12.038 13.1218 12.6473 13.5852C13.9927 11.4339 14.127 9.34873 13.321 7.93528C12.5481 6.58023 10.7219 5.68855 8.38558 6.74961C6.92345 7.41351 6.10186 8.6751 6.13106 10.2112C6.15637 11.5156 6.78133 12.8726 7.6808 14.0953C7.46664 14.2666 7.24859 14.4555 6.99159 14.6093C6.3277 15.0103 5.78646 15.0201 5.12646 14.471C3.25549 12.9155 4.32434 8.75298 5.06416 6.77298L4.44699 7.00661L4.12186 6.40307L3.39761 6.61722L3.05885 5.9397L2.37743 6.15192L2.00168 5.38678C1.21319 7.39988 -0.834955 13.704 2.91283 16.9923C4.77797 18.6296 6.90788 18.7581 8.91124 17.3583C9.30451 17.0838 9.67248 16.8015 10.0171 16.5172C10.8153 17.1597 11.6311 17.6601 12.3495 17.954C12.9569 18.2032 13.5565 18.3259 14.1387 18.3259C15.3769 18.3259 16.5334 17.7671 17.499 16.6769C20.2072 13.6163 19.5296 9.7459 18.6672 7.31422C17.9235 6.6036 17.4601 5.60289 17.4601 4.49705L17.464 4.49315Z" fill="white"/>
<path d="M4.98254 3.25098L4.10254 3.75717C4.40236 3.95381 4.73334 4.10177 5.08573 4.19912L4.98254 3.25098Z" fill="white"/>
<path d="M3.77939 3.94189L2.28223 4.80243L2.64435 5.5403L3.32187 5.33004L3.66258 6.0134L4.3732 5.80313L4.68276 6.37747L5.29798 6.14579L5.12276 4.55712C4.63019 4.4403 4.17462 4.23004 3.7755 3.94189H3.77939Z" fill="white"/>
<mask id="mask0_230_245" style="mask-type:luminance" maskUnits="userSpaceOnUse" x="-1" y="12" width="12" height="8">
<path d="M7.15717 13.309C7.15717 13.309 8.3 15.2598 10.5428 16.9088C10.5428 16.9088 7.51345 23.0026 -0.5 17.7148L4.1531 12.5049C4.1531 12.5049 6.38035 13.9806 7.15717 13.309Z" fill="white"/>
</mask>
<g mask="url(#mask0_230_245)">
<path d="M17.464 4.49315C17.464 4.23032 17.4912 3.97333 17.5399 3.72607L15.7273 4.22643C14.6643 4.52236 14.1698 5.74696 14.7325 6.69705C14.7617 6.74572 17.6061 11.4981 15.0459 14.3912C14.4658 15.0473 13.905 14.9266 13.4222 14.7767C13.1944 14.7066 13.0231 14.6054 12.8479 14.4788C10.4921 12.8201 9.74257 11.0562 9.74257 11.0562C9.58292 10.7193 9.48947 10.4098 9.48363 10.1489C9.48168 10.0029 9.48168 9.69138 9.67637 9.53369C9.90416 9.35068 10.1553 9.43439 10.2546 9.50059C10.3558 9.57457 10.4142 9.66023 10.4337 9.7128C10.5311 9.95811 10.5096 10.3261 10.2819 10.877C10.9827 12.1893 12.038 13.1218 12.6473 13.5852C13.9927 11.4339 14.127 9.34873 13.321 7.93528C12.5481 6.58023 10.7219 5.68855 8.38558 6.74961C6.92345 7.41351 6.10186 8.6751 6.13106 10.2112C6.15637 11.5156 6.78133 12.8726 7.6808 14.0953C7.46664 14.2666 7.24859 14.4555 6.99159 14.6093C6.3277 15.0103 5.78646 15.0201 5.12646 14.471C3.25549 12.9155 4.32434 8.75298 5.06416 6.77298L4.44699 7.00661L4.12186 6.40307L3.39761 6.61722L3.05885 5.9397L2.37743 6.15192L2.00168 5.38678C1.21319 7.39988 -0.834955 13.704 2.91283 16.9923C4.77797 18.6296 6.90788 18.7581 8.91124 17.3583C9.30451 17.0838 9.67248 16.8015 10.0171 16.5172C10.8153 17.1597 11.6311 17.6601 12.3495 17.954C12.9569 18.2032 13.5565 18.3259 14.1387 18.3259C15.3769 18.3259 16.5334 17.7671 17.499 16.6769C20.2072 13.6163 19.5296 9.7459 18.6672 7.31422C17.9235 6.6036 17.4601 5.60289 17.4601 4.49705L17.464 4.49315Z" fill="white"/>
</g>
<mask id="mask1_230_245" style="mask-type:luminance" maskUnits="userSpaceOnUse" x="9" y="6" width="7" height="8">
<path d="M9.77001 10.3379C9.77001 10.3379 11.1309 13.3361 13.144 13.7975C15.1571 14.259 16.335 9.46569 13.0914 6.82764C13.0914 6.82764 12.7371 6.86657 11.382 7.84392C11.0316 8.09702 10.0835 9.43259 9.76807 10.3398L9.77001 10.3379Z" fill="white"/>
</mask>
<g mask="url(#mask1_230_245)">
<path d="M17.4642 4.49315C17.4642 4.23032 17.4915 3.97333 17.5402 3.72607L15.7276 4.22643C14.6646 4.52236 14.1701 5.74696 14.7327 6.69705C14.7619 6.74572 17.6064 11.4981 15.0462 14.3912C14.466 15.0473 13.9053 14.9266 13.4225 14.7767C13.1947 14.7066 13.0233 14.6054 12.8481 14.4788C10.4924 12.8201 9.74281 11.0562 9.74281 11.0562C9.58317 10.7193 9.48971 10.4098 9.48387 10.1489C9.48193 10.0029 9.48193 9.69138 9.67662 9.53369C9.9044 9.35068 10.1556 9.43439 10.2548 9.50059C10.3561 9.57457 10.4145 9.66023 10.434 9.7128C10.5313 9.95811 10.5099 10.3261 10.2821 10.877C10.983 12.1893 12.0382 13.1218 12.6476 13.5852C13.9929 11.4339 14.1272 9.34873 13.3212 7.93528C12.5483 6.58023 10.7221 5.68855 8.38582 6.74961C6.9237 7.41351 6.1021 8.6751 6.13131 10.2112C6.15662 11.5156 6.78157 12.8726 7.68104 14.0953C7.46688 14.2666 7.24883 14.4555 6.99184 14.6093C6.32794 15.0103 5.78671 15.0201 5.12671 14.471C3.25573 12.9155 4.32458 8.75298 5.0644 6.77298L4.44724 7.00661L4.1221 6.40307L3.39786 6.61722L3.05909 5.9397L2.37768 6.15192L2.00193 5.38678C1.21343 7.39988 -0.834711 13.704 2.91308 16.9923C4.77821 18.6296 6.90812 18.7581 8.91148 17.3583C9.30476 17.0838 9.67272 16.8015 10.0173 16.5172C10.8156 17.1597 11.6313 17.6601 12.3497 17.954C12.9571 18.2032 13.5568 18.3259 14.1389 18.3259C15.3771 18.3259 16.5336 17.7671 17.4993 16.6769C20.2074 13.6163 19.5299 9.7459 18.6674 7.31422C17.9237 6.6036 17.4603 5.60289 17.4603 4.49705L17.4642 4.49315Z" fill="white"/>
</g>
</g>
</g>
<defs>
<clipPath id="clip0_230_245">
<rect width="22" height="22" fill="white"/>
</clipPath>
<clipPath id="clip1_230_245">
<rect width="22" height="16.8726" fill="white" transform="translate(-0.5 3)"/>
</clipPath>
</defs>
</svg>
