<svg width="5" height="4" viewBox="0 0 5 4" fill="none" xmlns="http://www.w3.org/2000/svg">
<path fill-rule="evenodd" clip-rule="evenodd" d="M4.58341 3.20843C4.66581 3.20841 4.74635 3.18396 4.81486 3.13818C4.88336 3.09239 4.93676 3.02732 4.96829 2.95119C4.99982 2.87507 5.00807 2.7913 4.992 2.71048C4.97593 2.62967 4.93626 2.55543 4.878 2.49715L2.79459 0.413747C2.71645 0.335631 2.61049 0.291748 2.5 0.291748C2.38951 0.291748 2.28355 0.335631 2.20541 0.413747L0.121999 2.49715C0.063743 2.55543 0.0240721 2.62967 0.00800171 2.71048C-0.00806868 2.7913 0.000182974 2.87507 0.0317133 2.95119C0.0632436 3.02732 0.116637 3.09239 0.185143 3.13818C0.25365 3.18396 0.334194 3.20841 0.416593 3.20843H4.58341Z" fill="#303030"/>
</svg>
