<svg width="15" height="15" viewBox="0 0 15 15" fill="none" xmlns="http://www.w3.org/2000/svg">
<path id="Vector" fill-rule="evenodd" clip-rule="evenodd" d="M7.5 0C3.35775 0 0 3.35775 0 7.5C0 11.6423 3.35775 15 7.5 15C11.6423 15 15 11.6423 15 7.5C15 3.35775 11.6423 0 7.5 0ZM4.875 5.625C4.875 5.28028 4.9429 4.93894 5.07482 4.62046C5.20673 4.30198 5.40009 4.0126 5.64384 3.76884C5.8876 3.52509 6.17698 3.33173 6.49546 3.19982C6.81394 3.0679 7.15528 3 7.5 3C7.84472 3 8.18606 3.0679 8.50454 3.19982C8.82302 3.33173 9.1124 3.52509 9.35616 3.76884C9.59991 4.0126 9.79327 4.30198 9.92518 4.62046C10.0571 4.93894 10.125 5.28028 10.125 5.625C10.125 6.32119 9.84844 6.98887 9.35616 7.48116C8.86387 7.97344 8.19619 8.25 7.5 8.25C6.80381 8.25 6.13613 7.97344 5.64384 7.48116C5.15156 6.98887 4.875 6.32119 4.875 5.625ZM12.1935 11.238C11.6321 11.9442 10.9184 12.5145 10.1056 12.9062C9.2929 13.2978 8.40219 13.5008 7.5 13.5C6.59781 13.5008 5.7071 13.2978 4.89437 12.9062C4.08165 12.5145 3.36792 11.9442 2.8065 11.238C4.02225 10.3657 5.68125 9.75 7.5 9.75C9.31875 9.75 10.9777 10.3657 12.1935 11.238Z" fill="#CC6E00"/>
</svg>
