<svg width="19" height="19" viewBox="0 0 19 19" fill="none" xmlns="http://www.w3.org/2000/svg">
<path d="M9.5 0C9.75196 0 9.99359 0.100089 10.1718 0.278249C10.3499 0.456408 10.45 0.698044 10.45 0.95V3.8C10.45 4.05196 10.3499 4.29359 10.1718 4.47175C9.99359 4.64991 9.75196 4.75 9.5 4.75C9.24804 4.75 9.00641 4.64991 8.82825 4.47175C8.65009 4.29359 8.55 4.05196 8.55 3.8V0.95C8.55 0.698044 8.65009 0.456408 8.82825 0.278249C9.00641 0.100089 9.24804 0 9.5 0ZM9.5 14.25C9.75196 14.25 9.99359 14.3501 10.1718 14.5282C10.3499 14.7064 10.45 14.948 10.45 15.2V18.05C10.45 18.302 10.3499 18.5436 10.1718 18.7218C9.99359 18.8999 9.75196 19 9.5 19C9.24804 19 9.00641 18.8999 8.82825 18.7218C8.65009 18.5436 8.55 18.302 8.55 18.05V15.2C8.55 14.948 8.65009 14.7064 8.82825 14.5282C9.00641 14.3501 9.24804 14.25 9.5 14.25ZM19 9.5C19 9.75196 18.8999 9.99359 18.7218 10.1718C18.5436 10.3499 18.302 10.45 18.05 10.45H15.2C14.948 10.45 14.7064 10.3499 14.5282 10.1718C14.3501 9.99359 14.25 9.75196 14.25 9.5C14.25 9.24804 14.3501 9.00641 14.5282 8.82825C14.7064 8.65009 14.948 8.55 15.2 8.55H18.05C18.302 8.55 18.5436 8.65009 18.7218 8.82825C18.8999 9.00641 19 9.24804 19 9.5ZM4.75 9.5C4.75 9.75196 4.64991 9.99359 4.47175 10.1718C4.29359 10.3499 4.05196 10.45 3.8 10.45H0.95C0.698044 10.45 0.456408 10.3499 0.278249 10.1718C0.100089 9.99359 0 9.75196 0 9.5C0 9.24804 0.100089 9.00641 0.278249 8.82825C0.456408 8.65009 0.698044 8.55 0.95 8.55H3.8C4.05196 8.55 4.29359 8.65009 4.47175 8.82825C4.64991 9.00641 4.75 9.24804 4.75 9.5ZM16.2174 16.2174C16.0393 16.3955 15.7977 16.4956 15.5458 16.4956C15.2939 16.4956 15.0523 16.3955 14.8741 16.2174L12.8592 14.2025C12.6861 14.0233 12.5904 13.7834 12.5926 13.5343C12.5947 13.2852 12.6946 13.0469 12.8708 12.8708C13.0469 12.6946 13.2852 12.5947 13.5343 12.5926C13.7834 12.5904 14.0233 12.6861 14.2025 12.8592L16.2174 14.8732C16.3058 14.9614 16.3758 15.0662 16.4237 15.1815C16.4715 15.2969 16.4961 15.4205 16.4961 15.5453C16.4961 15.6702 16.4715 15.7938 16.4237 15.9091C16.3758 16.0244 16.3058 16.1292 16.2174 16.2174ZM6.1408 6.1408C5.96265 6.3189 5.72106 6.41895 5.46915 6.41895C5.21724 6.41895 4.97565 6.3189 4.7975 6.1408L2.7835 4.1268C2.60524 3.94867 2.50505 3.70702 2.50496 3.45501C2.50487 3.203 2.60489 2.96128 2.78303 2.78303C2.96116 2.60477 3.20281 2.50457 3.45481 2.50448C3.70682 2.50439 3.94854 2.60442 4.1268 2.78255L6.1408 4.7975C6.3189 4.97565 6.41895 5.21724 6.41895 5.46915C6.41895 5.72106 6.3189 5.96265 6.1408 6.1408ZM2.7835 16.2174C2.6054 16.0393 2.50535 15.7977 2.50535 15.5458C2.50535 15.2939 2.6054 15.0523 2.7835 14.8741L4.79845 12.8592C4.97762 12.6861 5.21759 12.5904 5.46668 12.5926C5.71577 12.5947 5.95404 12.6946 6.13018 12.8708C6.30632 13.0469 6.40623 13.2852 6.40839 13.5343C6.41055 13.7834 6.3148 14.0233 6.14175 14.2025L4.12775 16.2174C4.03952 16.3058 3.93475 16.3758 3.81942 16.4237C3.70409 16.4715 3.58047 16.4961 3.45562 16.4961C3.33078 16.4961 3.20716 16.4715 3.09183 16.4237C2.9765 16.3758 2.87173 16.3058 2.7835 16.2174ZM12.8592 6.1408C12.6811 5.96265 12.5811 5.72106 12.5811 5.46915C12.5811 5.21724 12.6811 4.97565 12.8592 4.7975L14.8732 2.78255C14.9614 2.69429 15.0661 2.62426 15.1814 2.57647C15.2967 2.52867 15.4202 2.50405 15.545 2.50401C15.6698 2.50396 15.7933 2.5285 15.9086 2.57621C16.0239 2.62392 16.1287 2.69387 16.217 2.78208C16.3052 2.87028 16.3753 2.975 16.4231 3.09027C16.4709 3.20553 16.4955 3.32908 16.4955 3.45386C16.4956 3.57864 16.471 3.70221 16.4233 3.81751C16.3756 3.93281 16.3057 4.03759 16.2174 4.12585L14.2025 6.1408C14.0243 6.3189 13.7828 6.41895 13.5308 6.41895C13.2789 6.41895 13.0374 6.3189 12.8592 6.1408Z" fill="#2271B1"/>
</svg>
