<svg width="18" height="19" viewBox="0 0 18 19" fill="none" xmlns="http://www.w3.org/2000/svg">
<path d="M13.7249 4.78248C13.6555 4.71296 13.5731 4.6578 13.4824 4.62016C13.3917 4.58252 13.2944 4.56315 13.1962 4.56315C13.0979 4.56315 13.0007 4.58252 12.91 4.62016C12.8192 4.6578 12.7368 4.71296 12.6674 4.78248L8.99992 8.44248L5.33242 4.77498C5.26299 4.70555 5.18055 4.65047 5.08983 4.61289C4.99911 4.57531 4.90187 4.55597 4.80367 4.55597C4.70548 4.55597 4.60824 4.57531 4.51752 4.61289C4.42679 4.65047 4.34436 4.70555 4.27492 4.77498C4.20549 4.84442 4.15041 4.92685 4.11283 5.01758C4.07525 5.1083 4.05591 5.20554 4.05591 5.30373C4.05591 5.40193 4.07525 5.49917 4.11283 5.58989C4.15041 5.68062 4.20549 5.76305 4.27492 5.83248L7.94242 9.49998L4.27492 13.1675C4.20549 13.2369 4.15041 13.3194 4.11283 13.4101C4.07525 13.5008 4.05591 13.598 4.05591 13.6962C4.05591 13.7944 4.07525 13.8917 4.11283 13.9824C4.15041 14.0731 4.20549 14.1555 4.27492 14.225C4.34436 14.2944 4.42679 14.3495 4.51752 14.3871C4.60824 14.4247 4.70548 14.444 4.80367 14.444C4.90187 14.444 4.99911 14.4247 5.08983 14.3871C5.18055 14.3495 5.26299 14.2944 5.33242 14.225L8.99992 10.5575L12.6674 14.225C12.7369 14.2944 12.8193 14.3495 12.91 14.3871C13.0007 14.4247 13.098 14.444 13.1962 14.444C13.2944 14.444 13.3916 14.4247 13.4823 14.3871C13.5731 14.3495 13.6555 14.2944 13.7249 14.225C13.7944 14.1555 13.8494 14.0731 13.887 13.9824C13.9246 13.8917 13.9439 13.7944 13.9439 13.6962C13.9439 13.598 13.9246 13.5008 13.887 13.4101C13.8494 13.3194 13.7944 13.2369 13.7249 13.1675L10.0574 9.49998L13.7249 5.83248C14.0099 5.54748 14.0099 5.06748 13.7249 4.78248Z" fill="#303030"/>
</svg>
