<svg width="22" height="22" viewBox="0 0 22 22" fill="none" xmlns="http://www.w3.org/2000/svg">
<g clip-path="url(#clip0_229_257)">
<g clip-path="url(#clip1_229_257)">
<path d="M21.3461 5.63211L20.7212 3.36981C20.6472 3.10114 20.3707 2.94538 20.1021 3.01937L18.0948 3.57229C18.0111 3.86627 17.9644 4.17388 17.9644 4.49317C17.9644 5.39653 18.3226 6.21813 18.8989 6.82751L20.9918 6.24928C21.2605 6.17529 21.4162 5.89883 21.3422 5.63016L21.3461 5.63211Z" fill="#E24556"/>
<path d="M17.464 4.49364C17.464 4.23081 17.4912 3.97382 17.5399 3.72656L15.7273 4.22692C14.6643 4.52285 14.1698 5.74745 14.7325 6.69754C14.7617 6.74621 17.6061 11.4986 15.0459 14.3917C14.4658 15.0478 13.905 14.9271 13.4222 14.7772C13.1944 14.7071 13.0231 14.6059 12.8479 14.4793C10.4921 12.8205 9.74257 11.0567 9.74257 11.0567C9.58292 10.7198 9.48947 10.4103 9.48363 10.1494C9.48168 10.0034 9.48168 9.69187 9.67637 9.53417C9.90416 9.35116 10.1553 9.43488 10.2546 9.50108C10.3558 9.57506 10.4142 9.66072 10.4337 9.71329C10.5311 9.9586 10.5096 10.3266 10.2819 10.8775C10.9827 12.1897 12.038 13.1223 12.6473 13.5857C13.9927 11.4344 14.127 9.34922 13.321 7.93577C12.5481 6.58072 10.7219 5.68904 8.38558 6.7501C6.92345 7.414 6.10186 8.67559 6.13106 10.2117C6.15637 11.5161 6.78133 12.8731 7.6808 14.0958C7.46664 14.2671 7.24859 14.4559 6.99159 14.6097C6.3277 15.0108 5.78646 15.0205 5.12646 14.4715C3.25549 12.9159 4.32434 8.75347 5.06416 6.77347L4.44699 7.00709L4.12186 6.40355L3.39761 6.61771L3.05885 5.94019L2.37743 6.1524L2.00168 5.38727C1.21319 7.40037 -0.834955 13.7044 2.91283 16.9928C4.77797 18.6301 6.90788 18.7586 8.91124 17.3588C9.30451 17.0843 9.67248 16.802 10.0171 16.5177C10.8153 17.1602 11.6311 17.6605 12.3495 17.9545C12.9569 18.2037 13.5565 18.3264 14.1387 18.3264C15.3769 18.3264 16.5334 17.7676 17.499 16.6774C20.2072 13.6168 19.5296 9.74639 18.6672 7.3147C17.9235 6.60408 17.4601 5.60338 17.4601 4.49754L17.464 4.49364Z" fill="#0066CC"/>
<path d="M4.98254 3.25098L4.10254 3.75717C4.40236 3.95381 4.73334 4.10177 5.08573 4.19912L4.98254 3.25098Z" fill="#002B55"/>
<path d="M3.77939 3.94238L2.28223 4.80291L2.64435 5.54079L3.32187 5.33052L3.66258 6.01389L4.3732 5.80362L4.68276 6.37796L5.29798 6.14628L5.12276 4.5576C4.63019 4.44079 4.17462 4.23052 3.7755 3.94238H3.77939Z" fill="#FF8470"/>
<mask id="mask0_229_257" style="mask-type:luminance" maskUnits="userSpaceOnUse" x="-1" y="12" width="12" height="8">
<path d="M7.15717 13.309C7.15717 13.309 8.3 15.2598 10.5428 16.9088C10.5428 16.9088 7.51345 23.0026 -0.5 17.7148L4.1531 12.5049C4.1531 12.5049 6.38035 13.9806 7.15717 13.309Z" fill="white"/>
</mask>
<g mask="url(#mask0_229_257)">
<path d="M17.464 4.49364C17.464 4.23081 17.4912 3.97382 17.5399 3.72656L15.7273 4.22692C14.6643 4.52285 14.1698 5.74745 14.7325 6.69754C14.7617 6.74621 17.6061 11.4986 15.0459 14.3917C14.4658 15.0478 13.905 14.9271 13.4222 14.7772C13.1944 14.7071 13.0231 14.6059 12.8479 14.4793C10.4921 12.8205 9.74257 11.0567 9.74257 11.0567C9.58292 10.7198 9.48947 10.4103 9.48363 10.1494C9.48168 10.0034 9.48168 9.69187 9.67637 9.53417C9.90416 9.35116 10.1553 9.43488 10.2546 9.50108C10.3558 9.57506 10.4142 9.66072 10.4337 9.71329C10.5311 9.9586 10.5096 10.3266 10.2819 10.8775C10.9827 12.1897 12.038 13.1223 12.6473 13.5857C13.9927 11.4344 14.127 9.34922 13.321 7.93577C12.5481 6.58072 10.7219 5.68904 8.38558 6.7501C6.92345 7.414 6.10186 8.67559 6.13106 10.2117C6.15637 11.5161 6.78133 12.8731 7.6808 14.0958C7.46664 14.2671 7.24859 14.4559 6.99159 14.6097C6.3277 15.0108 5.78646 15.0205 5.12646 14.4715C3.25549 12.9159 4.32434 8.75347 5.06416 6.77347L4.44699 7.00709L4.12186 6.40355L3.39761 6.61771L3.05885 5.94019L2.37743 6.1524L2.00168 5.38727C1.21319 7.40037 -0.834955 13.7044 2.91283 16.9928C4.77797 18.6301 6.90788 18.7586 8.91124 17.3588C9.30451 17.0843 9.67248 16.802 10.0171 16.5177C10.8153 17.1602 11.6311 17.6605 12.3495 17.9545C12.9569 18.2037 13.5565 18.3264 14.1387 18.3264C15.3769 18.3264 16.5334 17.7676 17.499 16.6774C20.2072 13.6168 19.5296 9.74639 18.6672 7.3147C17.9235 6.60408 17.4601 5.60338 17.4601 4.49754L17.464 4.49364Z" fill="url(#paint0_linear_229_257)"/>
</g>
<mask id="mask1_229_257" style="mask-type:luminance" maskUnits="userSpaceOnUse" x="9" y="6" width="7" height="8">
<path d="M9.77001 10.3374C9.77001 10.3374 11.1309 13.3356 13.144 13.7971C15.1571 14.2585 16.335 9.4652 13.0914 6.82715C13.0914 6.82715 12.7371 6.86609 11.382 7.84343C11.0316 8.09653 10.0835 9.4321 9.76807 10.3394L9.77001 10.3374Z" fill="white"/>
</mask>
<g mask="url(#mask1_229_257)">
<path d="M17.464 4.49267C17.464 4.22983 17.4912 3.97284 17.5399 3.72559L15.7273 4.22594C14.6643 4.52187 14.1698 5.74647 14.7325 6.69656C14.7617 6.74523 17.6061 11.4976 15.0459 14.3907C14.4658 15.0468 13.905 14.9261 13.4222 14.7762C13.1944 14.7061 13.0231 14.6049 12.8479 14.4783C10.4921 12.8196 9.74257 11.0557 9.74257 11.0557C9.58292 10.7189 9.48947 10.4093 9.48363 10.1484C9.48168 10.0024 9.48168 9.6909 9.67637 9.5332C9.90416 9.35019 10.1553 9.4339 10.2546 9.5001C10.3558 9.57408 10.4142 9.65975 10.4337 9.71231C10.5311 9.95762 10.5096 10.3256 10.2819 10.8766C10.9827 12.1888 12.038 13.1213 12.6473 13.5847C13.9927 11.4334 14.127 9.34824 13.321 7.93479C12.5481 6.57975 10.7219 5.68806 8.38558 6.74913C6.92345 7.41302 6.10186 8.67461 6.13106 10.2107C6.15637 11.5151 6.78133 12.8721 7.6808 14.0948C7.46664 14.2661 7.24859 14.455 6.99159 14.6088C6.3277 15.0098 5.78646 15.0196 5.12646 14.4705C3.25549 12.915 4.32434 8.75249 5.06416 6.77249L4.44699 7.00612L4.12186 6.40258L3.39761 6.61674L3.05885 5.93921L2.37743 6.15143L2.00168 5.38629C1.21319 7.39939 -0.834955 13.7035 2.91283 16.9918C4.77797 18.6291 6.90788 18.7576 8.91124 17.3578C9.30451 17.0833 9.67248 16.801 10.0171 16.5167C10.8153 17.1592 11.6311 17.6596 12.3495 17.9535C12.9569 18.2028 13.5565 18.3254 14.1387 18.3254C15.3769 18.3254 16.5334 17.7666 17.499 16.6764C20.2072 13.6159 19.5296 9.74541 18.6672 7.31373C17.9235 6.60311 17.4601 5.6024 17.4601 4.49656L17.464 4.49267Z" fill="url(#paint1_linear_229_257)"/>
</g>
</g>
</g>
<defs>
<linearGradient id="paint0_linear_229_257" x1="3.13867" y1="11.0255" x2="20.6686" y2="11.0255" gradientUnits="userSpaceOnUse">
<stop offset="0.08" stop-color="#0066CC"/>
<stop offset="0.37" stop-color="#002B55"/>
</linearGradient>
<linearGradient id="paint1_linear_229_257" x1="7.32257" y1="3.44913" x2="11.3312" y2="14.4628" gradientUnits="userSpaceOnUse">
<stop offset="0.54" stop-color="#0066CC"/>
<stop offset="0.84" stop-color="#002B55"/>
</linearGradient>
<clipPath id="clip0_229_257">
<rect width="22" height="22" fill="white"/>
</clipPath>
<clipPath id="clip1_229_257">
<rect width="22" height="16.8726" fill="white" transform="translate(-0.5 3)"/>
</clipPath>
</defs>
</svg>
