<svg width="36" height="36" viewBox="0 0 36 36" fill="none" xmlns="http://www.w3.org/2000/svg">
<g clip-path="url(#clip0_708_5)">
<path d="M34.6319 11.1121C34.5916 11.1322 34.5474 11.1503 34.5011 11.1624L31.5395 11.9792C30.7226 11.1161 30.2156 9.95518 30.2156 8.67557C30.2156 8.22288 30.282 7.7883 30.4007 7.37182L32.1551 6.88694C28.8596 2.69603 23.7472 0 18.001 0C8.05991 0 0 8.0579 0 18.001C0 27.9441 8.05991 36.002 18.001 36.002C27.9421 36.002 36.002 27.9441 36.002 18.001C36.002 15.5605 35.5131 13.2347 34.6339 11.1121H34.6319ZM11.8444 6.91913L11.9913 8.2591C11.4903 8.12228 11.0215 7.91103 10.599 7.63338L11.8444 6.91712V6.91913ZM10.1423 7.89694C10.7056 8.30336 11.3515 8.60314 12.0476 8.76611L12.2951 11.0135L11.4259 11.3414L10.9873 10.5286L9.98133 10.8243L9.49846 9.8586L8.53876 10.1564L8.02571 9.11016L10.1423 7.89292V7.89694ZM29.5617 25.91C28.1956 27.4532 26.5599 28.2439 24.8075 28.2439C23.9846 28.2439 23.1355 28.0709 22.2764 27.7188C21.2604 27.3023 20.1055 26.5921 18.9748 25.6847C18.4899 26.0871 17.9688 26.4854 17.4115 26.8758C14.5767 28.8575 11.5627 28.6745 8.92506 26.3587C3.62555 21.707 6.52277 12.786 7.6374 9.93908L8.16856 11.0215L9.13229 10.7217L9.61113 11.6794L10.6352 11.3776L11.0939 12.2307L11.9651 11.9007C10.9189 14.7014 9.4039 20.5924 12.0516 22.7935C12.9852 23.5701 13.7517 23.556 14.6913 22.9887C15.0535 22.7694 15.3613 22.5038 15.6651 22.2623C14.3916 20.5341 13.5063 18.6126 13.4721 16.7677C13.4318 14.5948 14.5927 12.8081 16.661 11.8686C19.9667 10.3656 22.55 11.6271 23.6425 13.5445C24.7833 15.5444 24.5922 18.496 22.6909 21.538C21.8318 20.8821 20.3369 19.5643 19.345 17.7073C19.6669 16.9266 19.6971 16.4075 19.5603 16.0595C19.5321 15.985 19.4496 15.8643 19.3068 15.7597C19.1659 15.6671 18.8098 15.5484 18.4879 15.806C18.2103 16.0293 18.2103 16.4679 18.2143 16.6751C18.2203 17.0433 18.3551 17.4819 18.5805 17.9588C18.5805 17.9588 19.6428 20.4556 22.9746 22.8036C23.222 22.9846 23.4655 23.1255 23.7874 23.2261C24.4735 23.4373 25.2642 23.6083 26.0851 22.6808C29.7086 18.5885 25.6827 11.8645 25.6424 11.7961C24.8477 10.4501 25.5459 8.71782 27.0508 8.29934L29.614 7.59314C29.5436 7.94523 29.5054 8.30738 29.5054 8.6796C29.5054 10.2469 30.1633 11.6613 31.2135 12.6673C32.4348 16.1078 33.3925 21.5843 29.5597 25.914L29.5617 25.91Z" fill="#A0A5AA"/>
</g>
<defs>
<clipPath id="clip0_708_5">
<rect width="36" height="36" fill="white"/>
</clipPath>
</defs>
</svg>
