<svg width="20" height="20" viewBox="0 0 20 20" fill="none" xmlns="http://www.w3.org/2000/svg">
<g clip-path="url(#clip0_4859_1580)">
<mask id="mask0_4859_1580" style="mask-type:luminance" maskUnits="userSpaceOnUse" x="0" y="0" width="20" height="20">
<path d="M9.99936 18.3334C11.0939 18.3348 12.178 18.1199 13.1892 17.701C14.2004 17.2821 15.1189 16.6675 15.8919 15.8925C16.6668 15.1196 17.2814 14.2011 17.7003 13.1899C18.1192 12.1786 18.3341 11.0946 18.3327 10C18.3341 8.90548 18.1192 7.82144 17.7003 6.81021C17.2814 5.79897 16.6668 4.88049 15.8919 4.10753C15.1189 3.33254 14.2004 2.71794 13.1892 2.29906C12.178 1.88018 11.0939 1.66528 9.99936 1.66669C8.9048 1.6653 7.82077 1.88022 6.80953 2.29909C5.7983 2.71797 4.87982 3.33256 4.10686 4.10753C3.33189 4.88049 2.7173 5.79897 2.29842 6.81021C1.87954 7.82144 1.66463 8.90548 1.66602 10C1.6646 11.0946 1.87951 12.1786 2.29839 13.1899C2.71727 14.2011 3.33187 15.1196 4.10686 15.8925C4.87982 16.6675 5.7983 17.2821 6.80953 17.701C7.82077 18.1198 8.9048 18.3348 9.99936 18.3334Z" fill="white" stroke="white" stroke-width="2" stroke-linejoin="round"/>
<path d="M6.66602 10L9.16602 12.5L14.166 7.5" stroke="black" stroke-width="2" stroke-linecap="round" stroke-linejoin="round"/>
</mask>
<g mask="url(#mask0_4859_1580)">
<path d="M0 0H20V20H0V0Z" fill="#0066CC"/>
</g>
</g>
<defs>
<clipPath id="clip0_4859_1580">
<rect width="20" height="20" fill="white"/>
</clipPath>
</defs>
</svg>
