<?xml version="1.0" encoding="UTF-8"?><svg id="Layer_2" xmlns="http://www.w3.org/2000/svg" xmlns:xlink="http://www.w3.org/1999/xlink" viewBox="0 0 465.6 86.67"><defs><style>.cls-1{fill:url(#linear-gradient-2);}.cls-2{fill:#e24556;}.cls-3{fill:#06c;}.cls-4{clip-path:url(#clippath-1);}.cls-5{fill:#ff8470;}.cls-6{clip-path:url(#clippath);}.cls-7{fill:none;}.cls-8{fill:url(#linear-gradient);}.cls-9{fill:#002b55;}</style><clipPath id="clippath"><path class="cls-7" d="M39.33,52.95s5.87,10.02,17.39,18.49c0,0-15.56,31.3-56.72,4.14l23.9-26.76s11.44,7.58,15.43,4.13Z"/></clipPath><linearGradient id="linear-gradient" x1="18.69" y1="41.22" x2="108.73" y2="41.22" gradientUnits="userSpaceOnUse"><stop offset=".08" stop-color="#06c"/><stop offset=".37" stop-color="#002b55"/></linearGradient><clipPath id="clippath-1"><path class="cls-7" d="M52.75,37.69s6.99,15.4,17.33,17.77,16.39-22.25-.27-35.8c0,0-1.82,.2-8.78,5.22-1.8,1.3-6.67,8.16-8.29,12.82Z"/></clipPath><linearGradient id="linear-gradient-2" x1="40.18" y1="2.31" x2="60.77" y2="58.88" gradientUnits="userSpaceOnUse"><stop offset=".54" stop-color="#06c"/><stop offset=".84" stop-color="#002b55"/></linearGradient></defs><g id="Layer_1-2"><g><path class="cls-9" d="M142.72,68.75l-10.43-42.3h9.79l8.17,35.93-2.03-1.33h5.27l-2.26,1.33,6.32-34.37h7.88l-8.29,40.74h-14.43Zm25.21,0l-8.92-40.74h8.29l7.3,34.37-2.2-1.33h5.04l-1.91,1.33,7.13-35.93h9.27l-9.27,42.3h-14.72Z"/><path class="cls-9" d="M192.32,68.75v-31.76h7.36v13.62h-.17c0-4.48,.96-7.94,2.87-10.37,1.91-2.43,4.68-3.65,8.32-3.65h1.22v8h-2.32c-2.55,0-4.52,.69-5.91,2.06-1.39,1.37-2.09,3.35-2.09,5.94v16.17h-9.27Z"/><path class="cls-9" d="M215.45,43.83v-6.84h13.5v6.84h-13.5Zm7.82-9.97c-1.74,0-3.02-.45-3.85-1.36-.83-.91-1.25-2.06-1.25-3.45s.41-2.6,1.25-3.51c.83-.91,2.12-1.36,3.85-1.36s3.02,.45,3.85,1.36c.83,.91,1.25,2.08,1.25,3.51s-.42,2.54-1.25,3.45c-.83,.91-2.12,1.36-3.85,1.36Zm-3.59,34.89v-31.76h9.27v31.76h-9.27Z"/><path class="cls-9" d="M232.25,43.77v-6.78h22.72v6.78h-22.72Zm18.25,25.38c-3.21,0-5.79-.4-7.77-1.19-1.97-.79-3.41-2.12-4.32-4-.91-1.87-1.36-4.41-1.36-7.62V28.42h8.63v28.28c0,1.51,.4,2.66,1.19,3.45,.79,.79,1.92,1.19,3.39,1.19h4.69v7.82h-4.46Z"/><path class="cls-9" d="M274.21,69.85c-2.7,0-5.09-.46-7.16-1.39-2.07-.93-3.79-2.17-5.16-3.74-1.37-1.56-2.42-3.32-3.13-5.27-.72-1.95-1.07-3.95-1.07-6v-1.16c0-2.12,.36-4.16,1.07-6.11,.71-1.95,1.75-3.7,3.1-5.24,1.35-1.54,3.04-2.77,5.07-3.68,2.03-.91,4.34-1.36,6.92-1.36,3.4,0,6.27,.76,8.61,2.29,2.34,1.53,4.12,3.52,5.36,5.97,1.24,2.45,1.85,5.13,1.85,8.03v3.13h-28.11v-5.27h22.49l-3.01,2.43c0-1.89-.27-3.52-.81-4.87-.54-1.35-1.34-2.39-2.41-3.1-1.06-.71-2.39-1.07-3.97-1.07s-2.99,.37-4.11,1.1c-1.12,.73-1.97,1.81-2.55,3.22-.58,1.41-.87,3.14-.87,5.19,0,1.89,.27,3.54,.81,4.95,.54,1.41,1.39,2.5,2.55,3.27,1.16,.77,2.67,1.16,4.52,1.16,1.7,0,3.09-.33,4.17-.99,1.08-.66,1.82-1.47,2.2-2.43h8.52c-.46,2.13-1.37,4.02-2.72,5.68-1.35,1.66-3.05,2.96-5.1,3.88-2.05,.93-4.4,1.39-7.07,1.39Z"/><path class="cls-9" d="M285.62,34.73v-8.29h33.32v8.29h-33.32Zm11.88,34.02V33.58h9.5v35.18h-9.5Z"/><path class="cls-9" d="M330.65,69.85c-2.7,0-5.09-.46-7.16-1.39-2.07-.93-3.79-2.17-5.16-3.74-1.37-1.56-2.42-3.32-3.13-5.27-.72-1.95-1.07-3.95-1.07-6v-1.16c0-2.12,.36-4.16,1.07-6.11,.71-1.95,1.75-3.7,3.1-5.24,1.35-1.54,3.04-2.77,5.07-3.68,2.03-.91,4.34-1.36,6.92-1.36,3.4,0,6.27,.76,8.61,2.29,2.34,1.53,4.12,3.52,5.36,5.97,1.24,2.45,1.85,5.13,1.85,8.03v3.13h-28.11v-5.27h22.49l-3.01,2.43c0-1.89-.27-3.52-.81-4.87-.54-1.35-1.34-2.39-2.41-3.1-1.06-.71-2.39-1.07-3.97-1.07s-2.99,.37-4.11,1.1c-1.12,.73-1.97,1.81-2.55,3.22-.58,1.41-.87,3.14-.87,5.19,0,1.89,.27,3.54,.81,4.95,.54,1.41,1.39,2.5,2.55,3.27,1.16,.77,2.67,1.16,4.52,1.16,1.7,0,3.09-.33,4.17-.99,1.08-.66,1.82-1.47,2.2-2.43h8.52c-.46,2.13-1.37,4.02-2.72,5.68-1.35,1.66-3.05,2.96-5.1,3.88-2.05,.93-4.4,1.39-7.07,1.39Z"/><path class="cls-9" d="M345.66,68.75l9.85-17.04-.23,1.45-9.27-16.17h10.03l5.74,10.78h.93l5.39-10.78h9.45l-8.87,16.28,.23-1.22,10.43,16.69h-10.08l-6.84-11.53h-.93l-6.43,11.53h-9.39Z"/><path class="cls-9" d="M378.52,43.77v-6.78h22.72v6.78h-22.72Zm18.25,25.38c-3.21,0-5.79-.4-7.77-1.19-1.97-.79-3.41-2.12-4.32-4-.91-1.87-1.36-4.41-1.36-7.62V28.42h8.63v28.28c0,1.51,.4,2.66,1.19,3.45,.79,.79,1.92,1.19,3.39,1.19h4.69v7.82h-4.46Z"/><path class="cls-3" d="M410.44,69.29c-1.36,0-2.52-.48-3.49-1.45-.97-.97-1.45-2.13-1.45-3.49s.48-2.5,1.45-3.46c.97-.96,2.13-1.44,3.49-1.44s2.47,.48,3.46,1.44c.99,.96,1.48,2.11,1.48,3.46,0,.91-.23,1.73-.69,2.48-.46,.75-1.06,1.34-1.8,1.79-.74,.45-1.56,.67-2.45,.67Z"/><path class="cls-9" d="M430.89,69.56c-2.28,0-4.28-.41-6-1.22-1.72-.81-3.06-1.98-4.03-3.51-.97-1.53-1.45-3.35-1.45-5.48,0-2.32,.6-4.22,1.8-5.71,1.2-1.49,2.88-2.59,5.04-3.3,2.16-.71,4.66-1.07,7.48-1.07h6.78v5.16h-6.84c-1.62,0-2.87,.4-3.74,1.19-.87,.79-1.3,1.86-1.3,3.22,0,1.28,.43,2.31,1.3,3.1,.87,.79,2.12,1.19,3.74,1.19,1.04,0,1.98-.18,2.81-.55,.83-.37,1.52-.99,2.06-1.88,.54-.89,.85-2.12,.93-3.71l2.2,2.32c-.19,2.2-.72,4.06-1.59,5.56-.87,1.51-2.07,2.67-3.59,3.48-1.53,.81-3.39,1.22-5.59,1.22Zm10.14-.81v-9.39h-1.56v-10.2c0-1.62-.39-2.84-1.16-3.65-.77-.81-2.01-1.22-3.71-1.22-.85,0-1.97,.02-3.36,.06-1.39,.04-2.82,.1-4.29,.17-1.47,.08-2.8,.15-4,.23v-7.82c.89-.08,1.93-.15,3.13-.23,1.2-.08,2.43-.13,3.71-.17,1.28-.04,2.47-.06,3.59-.06,3.24,0,5.98,.46,8.2,1.39,2.22,.93,3.91,2.33,5.07,4.2,1.16,1.87,1.74,4.28,1.74,7.21v19.47h-7.36Z"/><path class="cls-9" d="M452.09,43.83v-6.84h13.5v6.84h-13.5Zm7.82-9.97c-1.74,0-3.02-.45-3.85-1.36-.83-.91-1.25-2.06-1.25-3.45s.41-2.6,1.25-3.51c.83-.91,2.11-1.36,3.85-1.36s3.02,.45,3.85,1.36c.83,.91,1.25,2.08,1.25,3.51s-.42,2.54-1.25,3.45c-.83,.91-2.12,1.36-3.85,1.36Zm-3.59,34.89v-31.76h9.27v31.76h-9.27Z"/></g><g><path class="cls-2" d="M112.21,13.52l-3.21-11.62c-.38-1.38-1.8-2.18-3.18-1.8l-10.31,2.84c-.43,1.51-.67,3.09-.67,4.73,0,4.64,1.84,8.86,4.8,11.99l10.75-2.97c1.38-.38,2.18-1.8,1.8-3.18Z"/><path class="cls-3" d="M92.27,7.67c0-1.35,.14-2.67,.39-3.94l-9.31,2.57c-5.46,1.52-8,7.81-5.11,12.69h0c.15,.25,14.76,24.66,1.61,39.52-2.98,3.37-5.86,2.75-8.34,1.98-1.17-.36-2.05-.88-2.95-1.53h0c-12.1-8.52-15.95-17.58-15.95-17.58h0c-.82-1.73-1.3-3.32-1.33-4.66-.01-.75-.01-2.35,.99-3.16,1.17-.94,2.46-.51,2.97-.17,.52,.38,.82,.82,.92,1.09,.5,1.26,.39,3.15-.78,5.98,3.6,6.74,9.02,11.53,12.15,13.91,6.91-11.05,7.6-21.76,3.46-29.02-3.97-6.96-13.35-11.54-25.35-6.09-7.51,3.41-11.73,9.89-11.58,17.78,.13,6.7,3.34,13.67,7.96,19.95-1.1,.88-2.22,1.85-3.54,2.64-3.41,2.06-6.19,2.11-9.58-.71-9.61-7.99-4.12-29.37-.32-39.54l-3.17,1.2-1.67-3.1-3.72,1.1-1.74-3.48-3.5,1.09-1.93-3.93c-4.05,10.34-14.57,42.72,4.68,59.61,9.58,8.41,20.52,9.07,30.81,1.88,2.02-1.41,3.91-2.86,5.68-4.32,4.1,3.3,8.29,5.87,11.98,7.38,3.12,1.28,6.2,1.91,9.19,1.91,6.36,0,12.3-2.87,17.26-8.47,13.91-15.72,10.43-35.6,6-48.09-3.82-3.65-6.2-8.79-6.2-14.47Z"/><g><path class="cls-9" d="M28.16,1.29l-4.52,2.6c1.54,1.01,3.24,1.77,5.05,2.27l-.53-4.87Z"/><path class="cls-5" d="M21.98,4.84l-7.69,4.42,1.86,3.79,3.48-1.08,1.75,3.51,3.65-1.08,1.59,2.95,3.16-1.19-.9-8.16c-2.53-.6-4.87-1.68-6.92-3.16Z"/></g><g class="cls-6"><path class="cls-8" d="M92.27,7.67c0-1.35,.14-2.67,.39-3.94l-9.31,2.57c-5.46,1.52-8,7.81-5.11,12.69h0c.15,.25,14.76,24.66,1.61,39.52-2.98,3.37-5.86,2.75-8.34,1.98-1.17-.36-2.05-.88-2.95-1.53h0c-12.1-8.52-15.95-17.58-15.95-17.58h0c-.82-1.73-1.3-3.32-1.33-4.66-.01-.75-.01-2.35,.99-3.16,1.17-.94,2.46-.51,2.97-.17,.52,.38,.82,.82,.92,1.09,.5,1.26,.39,3.15-.78,5.98,3.6,6.74,9.02,11.53,12.15,13.91,6.91-11.05,7.6-21.76,3.46-29.02-3.97-6.96-13.35-11.54-25.35-6.09-7.51,3.41-11.73,9.89-11.58,17.78,.13,6.7,3.34,13.67,7.96,19.95-1.1,.88-2.22,1.85-3.54,2.64-3.41,2.06-6.19,2.11-9.58-.71-9.61-7.99-4.12-29.37-.32-39.54l-3.17,1.2-1.67-3.1-3.72,1.1-1.74-3.48-3.5,1.09-1.93-3.93c-4.05,10.34-14.57,42.72,4.68,59.61,9.58,8.41,20.52,9.07,30.81,1.88,2.02-1.41,3.91-2.86,5.68-4.32,4.1,3.3,8.29,5.87,11.98,7.38,3.12,1.28,6.2,1.91,9.19,1.91,6.36,0,12.3-2.87,17.26-8.47,13.91-15.72,10.43-35.6,6-48.09-3.82-3.65-6.2-8.79-6.2-14.47Z"/></g><g class="cls-4"><path class="cls-1" d="M92.27,7.67c0-1.35,.14-2.67,.39-3.94l-9.31,2.57c-5.46,1.52-8,7.81-5.11,12.69h0c.15,.25,14.76,24.66,1.61,39.52-2.98,3.37-5.86,2.75-8.34,1.98-1.17-.36-2.05-.88-2.95-1.53h0c-12.1-8.52-15.95-17.58-15.95-17.58h0c-.82-1.73-1.3-3.32-1.33-4.66-.01-.75-.01-2.35,.99-3.16,1.17-.94,2.46-.51,2.97-.17,.52,.38,.82,.82,.92,1.09,.5,1.26,.39,3.15-.78,5.98,3.6,6.74,9.02,11.53,12.15,13.91,6.91-11.05,7.6-21.76,3.46-29.02-3.97-6.96-13.35-11.54-25.35-6.09-7.51,3.41-11.73,9.89-11.58,17.78,.13,6.7,3.34,13.67,7.96,19.95-1.1,.88-2.22,1.85-3.54,2.64-3.41,2.06-6.19,2.11-9.58-.71-9.61-7.99-4.12-29.37-.32-39.54l-3.17,1.2-1.67-3.1-3.72,1.1-1.74-3.48-3.5,1.09-1.93-3.93c-4.05,10.34-14.57,42.72,4.68,59.61,9.58,8.41,20.52,9.07,30.81,1.88,2.02-1.41,3.91-2.86,5.68-4.32,4.1,3.3,8.29,5.87,11.98,7.38,3.12,1.28,6.2,1.91,9.19,1.91,6.36,0,12.3-2.87,17.26-8.47,13.91-15.72,10.43-35.6,6-48.09-3.82-3.65-6.2-8.79-6.2-14.47Z"/></g></g></g></svg>