<svg width="21" height="21" viewBox="0 0 21 21" fill="none" xmlns="http://www.w3.org/2000/svg">
<path d="M2.6875 5.5C2.6875 5.25136 2.78627 5.0129 2.96209 4.83709C3.1379 4.66127 3.37636 4.5625 3.625 4.5625H17.375C17.6236 4.5625 17.8621 4.66127 18.0379 4.83709C18.2137 5.0129 18.3125 5.25136 18.3125 5.5C18.3125 5.74864 18.2137 5.9871 18.0379 6.16291C17.8621 6.33873 17.6236 6.4375 17.375 6.4375H3.625C3.37636 6.4375 3.1379 6.33873 2.96209 6.16291C2.78627 5.9871 2.6875 5.74864 2.6875 5.5ZM3.625 11.4375H8.625C8.87364 11.4375 9.1121 11.3387 9.28791 11.1629C9.46373 10.9871 9.5625 10.7486 9.5625 10.5C9.5625 10.2514 9.46373 10.0129 9.28791 9.83709C9.1121 9.66127 8.87364 9.5625 8.625 9.5625H3.625C3.37636 9.5625 3.1379 9.66127 2.96209 9.83709C2.78627 10.0129 2.6875 10.2514 2.6875 10.5C2.6875 10.7486 2.78627 10.9871 2.96209 11.1629C3.1379 11.3387 3.37636 11.4375 3.625 11.4375ZM9.875 14.5625H3.625C3.37636 14.5625 3.1379 14.6613 2.96209 14.8371C2.78627 15.0129 2.6875 15.2514 2.6875 15.5C2.6875 15.7486 2.78627 15.9871 2.96209 16.1629C3.1379 16.3387 3.37636 16.4375 3.625 16.4375H9.875C10.1236 16.4375 10.3621 16.3387 10.5379 16.1629C10.7137 15.9871 10.8125 15.7486 10.8125 15.5C10.8125 15.2514 10.7137 15.0129 10.5379 14.8371C10.3621 14.6613 10.1236 14.5625 9.875 14.5625ZM19.2883 16.1633C19.2012 16.2507 19.0977 16.32 18.9837 16.3673C18.8698 16.4147 18.7476 16.439 18.6242 16.439C18.5008 16.439 18.3787 16.4147 18.2647 16.3673C18.1507 16.32 18.0473 16.2507 17.9602 16.1633L16.5477 14.7508C15.8231 15.1548 14.977 15.2832 14.1652 15.1122C13.3535 14.9413 12.6309 14.4826 12.1308 13.8207C11.6307 13.1588 11.3869 12.3385 11.4442 11.5109C11.5016 10.6833 11.8562 9.90441 12.4428 9.31783C13.0294 8.73125 13.8083 8.37657 14.6359 8.31923C15.4635 8.26189 16.2838 8.50575 16.9457 9.00582C17.6076 9.5059 18.0663 10.2285 18.2372 11.0402C18.4082 11.852 18.2798 12.6981 17.8758 13.4227L19.2883 14.8344C19.3758 14.9215 19.4452 15.025 19.4926 15.1391C19.54 15.2531 19.5644 15.3753 19.5644 15.4988C19.5644 15.6223 19.54 15.7446 19.4926 15.8586C19.4452 15.9726 19.3758 16.0762 19.2883 16.1633ZM14.875 13.3125C15.184 13.3125 15.4861 13.2209 15.7431 13.0492C16 12.8775 16.2003 12.6335 16.3186 12.3479C16.4368 12.0624 16.4678 11.7483 16.4075 11.4452C16.3472 11.1421 16.1984 10.8637 15.9799 10.6451C15.7613 10.4266 15.4829 10.2778 15.1798 10.2175C14.8767 10.1572 14.5626 10.1882 14.2771 10.3064C13.9915 10.4247 13.7475 10.625 13.5758 10.8819C13.4041 11.1389 13.3125 11.441 13.3125 11.75C13.3125 11.9552 13.3529 12.1584 13.4314 12.3479C13.51 12.5375 13.6251 12.7098 13.7701 12.8549C13.9152 12.9999 14.0875 13.115 14.2771 13.1936C14.4666 13.2721 14.6698 13.3125 14.875 13.3125Z" fill="#1D2327"/>
</svg>
