<svg width="25" height="21" viewBox="0 0 25 21" fill="none" xmlns="http://www.w3.org/2000/svg">
<path d="M21.3039 9.47262L17.7882 12.5062L18.8593 17.0429C18.9184 17.2892 18.9032 17.5475 18.8156 17.7851C18.728 18.0227 18.5719 18.2291 18.3671 18.3781C18.1623 18.527 17.9179 18.612 17.6648 18.6221C17.4118 18.6323 17.1614 18.5672 16.9453 18.4351L13 16.007L9.0523 18.4351C8.83622 18.5664 8.58613 18.6309 8.3335 18.6204C8.08087 18.6098 7.837 18.5248 7.63261 18.3759C7.42822 18.2271 7.27243 18.0211 7.18488 17.7839C7.09732 17.5467 7.08191 17.2889 7.14058 17.0429L8.21558 12.5062L4.69995 9.47262C4.50878 9.30739 4.37052 9.08951 4.30244 8.84617C4.23436 8.60284 4.23947 8.34484 4.31715 8.10439C4.39483 7.86395 4.54162 7.65172 4.73919 7.4942C4.93677 7.33669 5.17637 7.24087 5.42808 7.21871L10.0375 6.84684L11.8156 2.54371C11.9118 2.3092 12.0756 2.1086 12.2862 1.96742C12.4967 1.82624 12.7445 1.75085 12.998 1.75085C13.2515 1.75085 13.4993 1.82624 13.7098 1.96742C13.9204 2.1086 14.0842 2.3092 14.1804 2.54371L15.9578 6.84684L20.5671 7.21871C20.8193 7.24004 21.0596 7.33533 21.2579 7.49263C21.4562 7.64992 21.6037 7.86224 21.6819 8.10298C21.76 8.34371 21.7654 8.60216 21.6973 8.84594C21.6292 9.08972 21.4907 9.30799 21.2992 9.4734L21.3039 9.47262Z" fill="#2271B1"/>
</svg>
