<svg width="14" height="15" viewBox="0 0 14 15" fill="none" xmlns="http://www.w3.org/2000/svg">
<path d="M7.00016 14.1667C5.13905 14.1667 3.56266 13.5209 2.271 12.2292C0.979329 10.9375 0.333496 9.36115 0.333496 7.50004C0.333496 5.63893 0.979329 4.06254 2.271 2.77087C3.56266 1.47921 5.13905 0.833374 7.00016 0.833374C7.9585 0.833374 8.87516 1.03115 9.75016 1.42671C10.6252 1.82226 11.3752 2.38837 12.0002 3.12504V0.833374H13.6668V6.66671H7.8335V5.00004H11.3335C10.8891 4.22226 10.2816 3.61115 9.511 3.16671C8.74044 2.72226 7.9035 2.50004 7.00016 2.50004C5.61127 2.50004 4.43072 2.98615 3.4585 3.95837C2.48627 4.9306 2.00016 6.11115 2.00016 7.50004C2.00016 8.88893 2.48627 10.0695 3.4585 11.0417C4.43072 12.0139 5.61127 12.5 7.00016 12.5C8.06961 12.5 9.03489 12.1945 9.896 11.5834C10.7571 10.9723 11.3613 10.1667 11.7085 9.16671H13.4585C13.0696 10.6389 12.2779 11.8403 11.0835 12.7709C9.88905 13.7014 8.52794 14.1667 7.00016 14.1667Z" fill="#2271B1"/>
</svg>
