<svg width="25" height="21" viewBox="0 0 25 21" fill="none" xmlns="http://www.w3.org/2000/svg">
<g clip-path="url(#clip0_5729_473)">
<path d="M13.8203 2.6133L12.8984 0.746113C12.7461 0.421894 12.2695 0.410176 12.1016 0.746113L11.1797 2.6133L9.13672 2.90627C8.77344 2.96096 8.61719 3.41018 8.88672 3.67971L10.3711 5.12502L10.0195 7.16018C9.96484 7.52346 10.3398 7.80471 10.6758 7.63674L12.5078 6.66799L14.3281 7.62111C14.6641 7.78908 15.043 7.50783 14.9844 7.14455L14.6328 5.10939L16.1172 3.67971C16.3828 3.41408 16.2305 2.96486 15.8672 2.90627L13.8242 2.6133H13.8203ZM10 10.5C9.30859 10.5 8.75 11.0586 8.75 11.75V19.25C8.75 19.9414 9.30859 20.5 10 20.5H15C15.6914 20.5 16.25 19.9414 16.25 19.25V11.75C16.25 11.0586 15.6914 10.5 15 10.5H10ZM1.25 13C0.558594 13 0 13.5586 0 14.25V19.25C0 19.9414 0.558594 20.5 1.25 20.5H6.25C6.94141 20.5 7.5 19.9414 7.5 19.25V14.25C7.5 13.5586 6.94141 13 6.25 13H1.25ZM17.5 16.75V19.25C17.5 19.9414 18.0586 20.5 18.75 20.5H23.75C24.4414 20.5 25 19.9414 25 19.25V16.75C25 16.0586 24.4414 15.5 23.75 15.5H18.75C18.0586 15.5 17.5 16.0586 17.5 16.75Z" fill="#2271B1"/>
</g>
<defs>
<clipPath id="clip0_5729_473">
<rect width="25" height="20" fill="white" transform="translate(0 0.5)"/>
</clipPath>
</defs>
</svg>
