<svg width="128" height="128" viewBox="0 0 128 128" fill="none" xmlns="http://www.w3.org/2000/svg">
<path d="M119.21 39.5145L116 27.8945C115.62 26.5145 114.2 25.7145 112.82 26.0945L102.51 28.9345C102.08 30.4445 101.84 32.0245 101.84 33.6645C101.84 38.3045 103.68 42.5245 106.64 45.6545L117.39 42.6845C118.77 42.3045 119.57 40.8845 119.19 39.5045L119.21 39.5145Z" fill="#E24556"/>
<path d="M99.27 33.6644C99.27 32.3144 99.41 30.9944 99.66 29.7244L90.35 32.2944C84.89 33.8144 82.35 40.1044 85.24 44.9844C85.39 45.2344 100 69.6444 86.85 84.5044C83.87 87.8744 80.99 87.2544 78.51 86.4844C77.34 86.1244 76.46 85.6044 75.56 84.9544C63.46 76.4344 59.61 67.3744 59.61 67.3744C58.79 65.6444 58.31 64.0544 58.28 62.7144C58.27 61.9644 58.27 60.3644 59.27 59.5544C60.44 58.6144 61.73 59.0444 62.24 59.3844C62.76 59.7644 63.06 60.2044 63.16 60.4744C63.66 61.7344 63.55 63.6244 62.38 66.4544C65.98 73.1944 71.4 77.9844 74.53 80.3644C81.44 69.3144 82.13 58.6044 77.99 51.3444C74.02 44.3844 64.64 39.8044 52.64 45.2544C45.13 48.6644 40.91 55.1444 41.06 63.0344C41.19 69.7344 44.4 76.7044 49.02 82.9844C47.92 83.8644 46.8 84.8344 45.48 85.6244C42.07 87.6844 39.29 87.7344 35.9 84.9144C26.29 76.9244 31.78 55.5444 35.58 45.3744L32.41 46.5744L30.74 43.4744L27.02 44.5744L25.28 41.0944L21.78 42.1844L19.85 38.2544C15.8 48.5944 5.28 80.9744 24.53 97.8644C34.11 106.274 45.05 106.934 55.34 99.7444C57.36 98.3344 59.25 96.8844 61.02 95.4244C65.12 98.7244 69.31 101.294 73 102.804C76.12 104.084 79.2 104.714 82.19 104.714C88.55 104.714 94.49 101.844 99.45 96.2444C113.36 80.5244 109.88 60.6444 105.45 48.1544C101.63 44.5044 99.25 39.3644 99.25 33.6844L99.27 33.6644Z" fill="#0066CC"/>
<path d="M35.16 27.2844L30.64 29.8844C32.18 30.8944 33.88 31.6544 35.69 32.1544L35.16 27.2844Z" fill="#002B55"/>
<path d="M28.98 30.8344L21.29 35.2544L23.15 39.0444L26.63 37.9644L28.38 41.4744L32.03 40.3944L33.62 43.3444L36.78 42.1544L35.88 33.9944C33.35 33.3944 31.01 32.3144 28.96 30.8344H28.98Z" fill="#FF8470"/>
<mask id="mask0_3_53" style="mask-type:luminance" maskUnits="userSpaceOnUse" x="7" y="74" width="57" height="39">
<path d="M46.33 78.9445C46.33 78.9445 52.2 88.9645 63.72 97.4345C63.72 97.4345 48.16 128.734 7 101.574L30.9 74.8145C30.9 74.8145 42.34 82.3945 46.33 78.9445Z" fill="white"/>
</mask>
<g mask="url(#mask0_3_53)">
<path d="M99.27 33.6644C99.27 32.3144 99.41 30.9944 99.66 29.7244L90.35 32.2944C84.89 33.8144 82.35 40.1044 85.24 44.9844C85.39 45.2344 100 69.6444 86.85 84.5044C83.87 87.8744 80.99 87.2544 78.51 86.4844C77.34 86.1244 76.46 85.6044 75.56 84.9544C63.46 76.4344 59.61 67.3744 59.61 67.3744C58.79 65.6444 58.31 64.0544 58.28 62.7144C58.27 61.9644 58.27 60.3644 59.27 59.5544C60.44 58.6144 61.73 59.0444 62.24 59.3844C62.76 59.7644 63.06 60.2044 63.16 60.4744C63.66 61.7344 63.55 63.6244 62.38 66.4544C65.98 73.1944 71.4 77.9844 74.53 80.3644C81.44 69.3144 82.13 58.6044 77.99 51.3444C74.02 44.3844 64.64 39.8044 52.64 45.2544C45.13 48.6644 40.91 55.1444 41.06 63.0344C41.19 69.7344 44.4 76.7044 49.02 82.9844C47.92 83.8644 46.8 84.8344 45.48 85.6244C42.07 87.6844 39.29 87.7344 35.9 84.9144C26.29 76.9244 31.78 55.5444 35.58 45.3744L32.41 46.5744L30.74 43.4744L27.02 44.5744L25.28 41.0944L21.78 42.1844L19.85 38.2544C15.8 48.5944 5.28 80.9744 24.53 97.8644C34.11 106.274 45.05 106.934 55.34 99.7444C57.36 98.3344 59.25 96.8844 61.02 95.4244C65.12 98.7244 69.31 101.294 73 102.804C76.12 104.084 79.2 104.714 82.19 104.714C88.55 104.714 94.49 101.844 99.45 96.2444C113.36 80.5244 109.88 60.6444 105.45 48.1544C101.63 44.5044 99.25 39.3644 99.25 33.6844L99.27 33.6644Z" fill="url(#paint0_linear_3_53)"/>
</g>
<mask id="mask1_3_53" style="mask-type:luminance" maskUnits="userSpaceOnUse" x="59" y="45" width="29" height="37">
<path d="M59.75 63.6844C59.75 63.6844 66.74 79.0844 77.08 81.4544C87.42 83.8244 93.47 59.2044 76.81 45.6544C76.81 45.6544 74.99 45.8544 68.03 50.8744C66.23 52.1744 61.36 59.0344 59.74 63.6944L59.75 63.6844Z" fill="white"/>
</mask>
<g mask="url(#mask1_3_53)">
<path d="M99.27 33.6644C99.27 32.3144 99.41 30.9944 99.66 29.7244L90.35 32.2944C84.89 33.8144 82.35 40.1044 85.24 44.9844C85.39 45.2344 100 69.6444 86.85 84.5044C83.87 87.8744 80.99 87.2544 78.51 86.4844C77.34 86.1244 76.46 85.6044 75.56 84.9544C63.46 76.4344 59.61 67.3744 59.61 67.3744C58.79 65.6444 58.31 64.0544 58.28 62.7144C58.27 61.9644 58.27 60.3644 59.27 59.5544C60.44 58.6144 61.73 59.0444 62.24 59.3844C62.76 59.7644 63.06 60.2044 63.16 60.4744C63.66 61.7344 63.55 63.6244 62.38 66.4544C65.98 73.1944 71.4 77.9844 74.53 80.3644C81.44 69.3144 82.13 58.6044 77.99 51.3444C74.02 44.3844 64.64 39.8044 52.64 45.2544C45.13 48.6644 40.91 55.1444 41.06 63.0344C41.19 69.7344 44.4 76.7044 49.02 82.9844C47.92 83.8644 46.8 84.8344 45.48 85.6244C42.07 87.6844 39.29 87.7344 35.9 84.9144C26.29 76.9244 31.78 55.5444 35.58 45.3744L32.41 46.5744L30.74 43.4744L27.02 44.5744L25.28 41.0944L21.78 42.1844L19.85 38.2544C15.8 48.5944 5.28 80.9744 24.53 97.8644C34.11 106.274 45.05 106.934 55.34 99.7444C57.36 98.3344 59.25 96.8844 61.02 95.4244C65.12 98.7244 69.31 101.294 73 102.804C76.12 104.084 79.2 104.714 82.19 104.714C88.55 104.714 94.49 101.844 99.45 96.2444C113.36 80.5244 109.88 60.6444 105.45 48.1544C101.63 44.5044 99.25 39.3644 99.25 33.6844L99.27 33.6644Z" fill="url(#paint1_linear_3_53)"/>
</g>
<defs>
<linearGradient id="paint0_linear_3_53" x1="25.69" y1="67.2144" x2="115.73" y2="67.2144" gradientUnits="userSpaceOnUse">
<stop offset="0.08" stop-color="#0066CC"/>
<stop offset="0.37" stop-color="#002B55"/>
</linearGradient>
<linearGradient id="paint1_linear_3_53" x1="47.18" y1="28.3044" x2="67.77" y2="84.8744" gradientUnits="userSpaceOnUse">
<stop offset="0.54" stop-color="#0066CC"/>
<stop offset="0.84" stop-color="#002B55"/>
</linearGradient>
</defs>
</svg>
